<?xml version="1.0" standalone="no"?>
<!DOCTYPE svg PUBLIC "-//W3C//DTD SVG 20010904//EN"
 "http://www.w3.org/TR/2001/REC-SVG-20010904/DTD/svg10.dtd">
<svg version="1.0" xmlns="http://www.w3.org/2000/svg"
 width="260.000000pt" height="260.000000pt" viewBox="0 0 260.000000 260.000000"
 preserveAspectRatio="xMidYMid meet">
<metadata>
Created by potrace 1.14, written by Peter Selinger 2001-2017
</metadata>
<g transform="translate(0.000000,260.000000) scale(0.100000,-0.100000)"
fill="#000000" stroke="none">
<path d="M1100 2570 c-99 -26 -240 -97 -317 -160 -129 -105 -232 -270 -274
-439 -18 -72 -21 -106 -17 -226 l4 -142 -60 -31 c-139 -72 -256 -195 -332
-347 -62 -126 -84 -221 -84 -365 0 -144 22 -239 84 -365 82 -164 197 -279 361
-361 126 -62 221 -84 365 -84 144 0 239 22 365 84 l90 44 90 -44 c127 -62 221
-84 365 -84 144 0 239 22 365 84 164 82 279 197 361 361 62 126 84 221 84 365
0 144 -22 239 -84 365 -73 147 -193 274 -322 342 -51 26 -51 27 -43 62 16 70
10 263 -11 347 -26 102 -95 242 -160 321 -103 127 -270 232 -434 273 -107 27
-290 27 -396 0z"/>
</g>
</svg>
